<svg xmlns="http://www.w3.org/2000/svg" viewBox="0 0 4164 933.82" width="50rem" height="50rem"><defs><style>.cls-1{fill:#ffdc8f;}</style></defs><g id="Calque_2" data-name="Calque 2"><g id="Calque_1-2" data-name="Calque 1"><path class="cls-1" d="M843.47,479.18c4.92-29.49,24.9-149.15-67.06-242.91-72.34-73.76-170.23-86.91-199.3-89.84q-136.87,346-273.76,692.12Q366.24,419.29,429.13,0C533.58-.6,740.58,13.66,864.43,144.76,966.89,253.23,981.14,376.65,984.05,412.63c3.21,39.85,9.92,140.61-51.8,239.58C910.57,687,847.52,774.32,628.9,851.86,303.87,967.13.63,931,0,918.41-.64,905.52,315.19,945.85,599.31,772,670.68,728.33,817.33,635.72,843.47,479.18Z"/><path class="cls-1" d="M1173.13,550.94c90.91,40.17,177.46,19.78,199.92-21.52,28.8-52.95-42.1-150.6-108.53-156-83.83-6.86-194.28,130.42-159.93,242.12,27.92,90.79,138.1,121,148.51,123.74,130.45,33.81,234.55-59.6,239.9-64.56C1455.93,751.28,1381.68,803,1298.8,809.2c-107.4,8-178.06-64.2-194.21-80.71-66.79-68.27-92.59-171.94-57.12-263.64,33.34-86.19,130-185.41,239.9-166.79,89.27,15.12,135.45,99.13,142.8,113,31.4,54.83,36,117.58,5.71,156C1391.49,623.36,1266.7,634.53,1173.13,550.94Z"/><path class="cls-1" d="M1508.67,391.13Q1576,600.47,1643.42,809.82L2095,279,1679.84,627.59Z"/><polygon class="cls-1" points="2095.16 573.82 2342 573.82 2218.58 596.38 2095.16 573.82"/><path class="cls-1" d="M3142.94,389.46c-13.13-.76-73.8,298.64,90.71,389.32,39.85,22,98.82,34.94,143.9,16.46,139.19-57.06,36.27-369.07,25.67-369.66-9.77-.56,44.48,262.68-67.29,295.8-29.29,8.68-58.12-2-62.67-3.71C3148,669.63,3155.56,390.18,3142.94,389.46Z"/><path class="cls-1" d="M3508.38,431.63l42.33,395.19q26.64-190,53.29-380Z"/><path class="cls-1" d="M3515.5,380c-10.79-13-11.07-32.84,0-45.52,15.25-17.46,51.47-20.72,77.86,0,9.41,15.45,9.8,33.29,0,45.52C3576.59,400.87,3533.24,401.3,3515.5,380Z"/><path class="cls-1" d="M3653.64,510.48l36.28-82.66h276.65L3828.25,690.28,4164,705,3689.92,812.82l160.7-309.68Z"/><path class="cls-1" d="M2677,23c-148,38.8-275.51,260.68-208.59,513.5,59.67,187.76,233.48,290.28,375.77,259.19,180.6-39.45,253.88-281.77,222.49-447.26C3030.7,158.52,2839.92-19.73,2677,23Z"/><path d="M2713.94,125.55c-131.68,15.89-215,191.33-192.6,328.81,25.41,156,193.37,302.56,323.06,272.11,129.12-30.32,189.8-228.9,142.89-374.16C2951.67,242,2837.28,110.67,2713.94,125.55Z"/><polygon class="cls-1" points="2822.97 594.68 2872.71 917.82 3087 798.77 2822.97 594.68"/></g></g></svg>