<svg xmlns="http://www.w3.org/2000/svg" viewBox="0 0 1665 768"><defs><style>.cls-1{fill:#ffdc8f;}</style></defs><g id="Calque_2" data-name="Calque 2"><g id="Calque_1-2" data-name="Calque 1"><rect width="1665" height="768"/><path class="cls-1" d="M356,390.43c1.8-14.09,9.13-71.26-24.6-116.06a109.48,109.48,0,0,0-73.12-42.93Q208.09,396.79,157.88,562.13L204,161.49c38.32-.3,114.26,6.52,159.7,69.16,37.59,51.82,42.82,110.79,43.88,128,1.18,19,3.64,67.19-19,114.47-8,16.61-31.08,58.35-111.29,95.39-119.24,55.08-230.49,37.84-230.72,31.8s115.63,13.11,219.86-69.95C292.64,509.47,346.44,465.23,356,390.43Z"/><path class="cls-1" d="M474.46,422.33c33.84,18.79,66.06,9.25,74.42-10.06,10.72-24.77-15.67-70.44-40.4-73-31.21-3.2-72.33,61-59.54,113.25,10.39,42.47,51.41,56.62,55.29,57.89,48.56,15.81,87.31-27.88,89.3-30.2-13.8,35.82-41.44,60-72.29,62.91-40,3.76-66.29-30-72.3-37.75-24.87-31.93-34.47-80.42-21.26-123.31,12.41-40.32,48.37-86.73,89.3-78,33.24,7.07,50.43,46.37,53.16,52.85,11.69,25.65,13.42,55,2.13,73C555.74,456.21,509.29,461.43,474.46,422.33Z"/><path class="cls-1" d="M582.68,362.31q25.11,84,50.21,168l168.29-213L646.46,457.2Z"/><polygon class="cls-1" points="749.61 446.07 875.83 446.07 812.72 458.79 749.61 446.07"/><path class="cls-1" d="M1202.51,371.66c-4,0-29.84,121.47,18,153.91,11.6,7.85,29.24,11.66,43.43,3.18,43.81-26.18,20.14-148.81,16.93-148.8-3,0,7.08,104.25-27.79,120.18-9.14,4.17-17.65.59-19,0C1197.15,483.85,1206.34,371.65,1202.51,371.66Z"/><path class="cls-1" d="M1306.88,378.36q7.59,91.27,15.2,182.55l19.14-175.51Z"/><path class="cls-1" d="M1309.44,354.49c-3.88-6-4-15.17,0-21,5.47-8.07,18.48-9.57,28,0,3.38,7.14,3.52,15.38,0,21C1331.37,364.15,1315.8,364.35,1309.44,354.49Z"/><path class="cls-1" d="M1346.77,411.93l19-35.81h144.86L1438.2,489.84,1614,496.2l-248.24,46.73,84.14-134.18Z"/><path class="cls-1" d="M1006.3,149c-64.66,21.76-120.37,146.22-91.14,288,26.08,105.31,102,162.82,164.18,145.38,78.91-22.13,110.93-158,97.21-250.87C1160.82,225,1077.46,125,1006.3,149Z"/><path d="M1022.42,206.53C964.89,215.44,928.5,313.84,938.28,391c11.1,87.53,84.48,169.71,141.14,152.63,56.42-17,82.93-128.39,62.43-209.86C1126.29,271.85,1076.31,198.18,1022.42,206.53Z"/><polygon class="cls-1" points="1070.06 469.66 1091.79 650.91 1185.42 584.13 1070.06 469.66"/></g></g></svg>