<svg id="Calque_1" data-name="Calque 1" xmlns="http://www.w3.org/2000/svg" viewBox="0 0 947 446"><defs><style>.cls-1{fill:#ffdc8f;}</style></defs><rect width="947" height="446"/><path class="cls-1" d="M244.5,344.73c1-8.18,5.19-41.38-14-67.4a61.92,61.92,0,0,0-41.59-24.92l-57.12,192Q144.93,328.11,158,211.78c21.8-.17,65,3.79,90.83,40.16,21.38,30.1,24.35,64.35,25,74.33.67,11.06,2.07,39-10.81,66.47-4.52,9.65-17.68,33.89-63.29,55.4-67.82,32-131.1,22-131.23,18.47s65.77,7.61,125.05-40.63C208.44,413.86,239,388.17,244.5,344.73Z" transform="translate(-42 -118)"/><path class="cls-1" d="M311.86,363.26c19.24,10.91,37.57,5.37,42.33-5.84,6.09-14.39-8.92-40.91-23-42.39-17.76-1.86-41.14,35.43-33.87,65.77,5.91,24.66,29.24,32.88,31.45,33.61,27.62,9.19,49.66-16.19,50.79-17.53-7.85,20.8-23.57,34.85-41.12,36.53-22.74,2.18-37.7-17.44-41.12-21.92-14.14-18.55-19.6-46.71-12.09-71.61,7.06-23.41,27.51-50.37,50.79-45.31,18.91,4.11,28.68,26.93,30.24,30.69,6.65,14.9,7.63,31.94,1.21,42.39C358.09,382.93,331.67,386,311.86,363.26Z" transform="translate(-42 -118)"/><path class="cls-1" d="M373.41,328.4,402,426l95.72-123.72-88,81.25Z" transform="translate(-42 -118)"/><polygon class="cls-1" points="426.35 259.05 498.14 259.05 462.25 266.43 426.35 259.05"/><path class="cls-1" d="M726,333.83c-2.26,0-17,70.54,10.26,89.38,6.6,4.57,16.63,6.77,24.7,1.85,24.92-15.2,11.46-86.42,9.63-86.41-1.68,0,4,60.54-15.8,69.79a13.4,13.4,0,0,1-10.81,0C722.9,399,728.13,333.83,726,333.83Z" transform="translate(-42 -118)"/><path class="cls-1" d="M785.31,337.72q4.32,53,8.65,106,5.43-51,10.88-101.93Z" transform="translate(-42 -118)"/><path class="cls-1" d="M786.77,323.86a11.93,11.93,0,0,1,0-12.21c3.11-4.68,10.51-5.56,15.9,0,1.92,4.15,2,8.93,0,12.21C799.24,329.47,790.39,329.59,786.77,323.86Z" transform="translate(-42 -118)"/><path class="cls-1" d="M808,357.22l10.81-20.8H901.2l-41.2,66,100,3.7L818.81,433.29l47.85-77.91Z" transform="translate(-42 -118)"/><path class="cls-1" d="M614.35,204.52c-36.77,12.64-68.46,84.92-51.83,167.27,14.83,61.15,58,94.55,93.38,84.42,44.88-12.85,63.09-91.78,55.29-145.68C702.24,248.68,654.83,190.62,614.35,204.52Z" transform="translate(-42 -118)"/><path d="M623.52,237.94c-32.72,5.17-53.42,62.32-47.86,107.1,6.31,50.82,48.05,98.55,80.28,88.63s47.17-74.56,35.51-121.87C682.6,275.87,654.17,233.09,623.52,237.94Z" transform="translate(-42 -118)"/><polygon class="cls-1" points="608.62 272.75 620.98 378 674.23 339.22 608.62 272.75"/></svg>